<svg xmlns="http://www.w3.org/2000/svg" width="640" height="450" viewBox="0 0 640 450">
  <g id="Group_2445" data-name="Group 2445" transform="translate(0 -1540)">
    <rect id="_4180881-removebg-preview" data-name="4180881-removebg-preview" width="640" height="450" transform="translate(0 1540)" fill="#333"/>
    <g id="Group_2434" data-name="Group 2434" transform="translate(-700.021 1380)">
      <g id="Polygon_1" data-name="Polygon 1" transform="translate(898.5 348.012)" fill="#d8d8d8">
        <path d="M 94.98246002197266 79.51842498779297 L 2.655117273330688 79.51842498779297 L 48.81879043579102 2.906354904174805 L 94.98246002197266 79.51842498779297 Z" stroke="none"/>
        <path d="M 48.81879043579102 5.812705993652344 L 5.310218811035156 78.01840972900391 L 92.32734680175781 78.01840972900391 L 48.81879043579102 5.812705993652344 M 48.81879043579102 -7.62939453125e-06 L 97.6375732421875 81.01840972900391 L -7.62939453125e-06 81.01840972900391 L 48.81879043579102 -7.62939453125e-06 Z" stroke="none" fill="#333"/>
      </g>
      <g id="Polygon_2" data-name="Polygon 2" transform="translate(927.584 294)" fill="#d8d8d8">
        <path d="M 157.3276062011719 133.5307006835938 L 2.631860494613647 133.5307006835938 L 79.97972106933594 2.943388938903809 L 157.3276062011719 133.5307006835938 Z" stroke="none"/>
        <path d="M 79.97972106933594 5.886749267578125 L 5.263687133789062 132.0306854248047 L 154.6957702636719 132.0306854248047 L 79.97972106933594 5.886749267578125 M 79.97972106933594 0 L 159.9594421386719 135.0306854248047 L 0 135.0306854248047 L 79.97972106933594 0 Z" stroke="none" fill="#333"/>
      </g>
      <g id="Ellipse_5" data-name="Ellipse 5" transform="translate(948.357 306.464)" fill="#d8d8d8" stroke="#333" stroke-width="3">
        <ellipse cx="15.58" cy="14.542" rx="15.58" ry="14.542" stroke="none"/>
        <ellipse cx="15.58" cy="14.542" rx="14.08" ry="13.042" fill="none"/>
      </g>
    </g>
  </g>
</svg>
