<?xml version="1.0" encoding="UTF-8"?>
<!DOCTYPE svg PUBLIC "-//W3C//DTD SVG 1.1//EN" "http://www.w3.org/Graphics/SVG/1.1/DTD/svg11.dtd">
<svg xmlns="http://www.w3.org/2000/svg" version="1.1" width="705px" height="354px" style="shape-rendering:geometricPrecision; text-rendering:geometricPrecision; image-rendering:optimizeQuality; fill-rule:evenodd; clip-rule:evenodd" xmlns:xlink="http://www.w3.org/1999/xlink">
<g><path style="opacity:1" fill="#37c6ff" d="M 390.5,29.5 C 390.738,31.4044 391.738,32.7377 393.5,33.5C 394.674,34.5137 395.34,35.847 395.5,37.5C 396.083,42.2383 398.75,44.0717 403.5,43C 405.32,42.7996 406.653,41.9663 407.5,40.5C 409.861,40.3259 412.194,39.9926 414.5,39.5C 415.597,43.7766 415.597,48.1099 414.5,52.5C 414.448,54.9029 414.781,57.2362 415.5,59.5C 416.911,61.539 418.911,62.539 421.5,62.5C 426.746,63.8255 428.412,66.9922 426.5,72C 422.921,73.7059 419.421,75.5392 416,77.5C 415.427,82.5897 415.927,87.5897 417.5,92.5C 417.66,94.3545 416.993,95.6879 415.5,96.5C 410.901,96.5335 406.401,95.8668 402,94.5C 399.046,94.9552 397.212,96.6219 396.5,99.5C 395.876,101.754 394.543,103.421 392.5,104.5C 391.5,104.833 390.833,105.5 390.5,106.5C 388.097,106.552 385.764,106.219 383.5,105.5C 382.674,102.515 381.341,99.8485 379.5,97.5C 378.5,97.1667 377.833,96.5 377.5,95.5C 376.866,94.0532 375.699,93.3866 374,93.5C 372.301,93.3866 371.134,94.0532 370.5,95.5C 368.414,96.6091 366.08,97.2757 363.5,97.5C 361.645,97.6598 360.312,96.9931 359.5,95.5C 359.572,91.3735 360.239,87.3735 361.5,83.5C 362.622,81.7116 362.789,79.7116 362,77.5C 361.184,76.1772 360.017,75.5106 358.5,75.5C 357.391,75.4431 356.391,75.1098 355.5,74.5C 355.027,73.0937 354.027,72.427 352.5,72.5C 352.027,71.0937 351.027,70.427 349.5,70.5C 349.56,67.6592 350.226,64.9925 351.5,62.5C 353.404,62.2624 354.738,61.2624 355.5,59.5C 357.404,59.2624 358.738,58.2624 359.5,56.5C 360.993,55.6879 361.66,54.3545 361.5,52.5C 361.66,50.6455 360.993,49.3121 359.5,48.5C 358.518,40.1618 362.185,37.1618 370.5,39.5C 372.5,39.5 374.5,39.5 376.5,39.5C 378.833,39.1667 380.167,37.8333 380.5,35.5C 382.262,34.7377 383.262,33.4044 383.5,31.5C 384.5,31.1667 385.167,30.5 385.5,29.5C 387.167,28.1667 388.833,28.1667 390.5,29.5 Z M 397.5,53.5 C 398.833,55.5 400.5,57.1667 402.5,58.5C 402.328,59.4916 402.662,60.1583 403.5,60.5C 404.272,64.4517 404.605,68.4517 404.5,72.5C 404.5,72.8333 404.5,73.1667 404.5,73.5C 403.508,75.4561 402.508,77.4561 401.5,79.5C 400.5,79.8333 399.833,80.5 399.5,81.5C 397.973,81.427 396.973,82.0937 396.5,83.5C 394.597,83.7959 392.93,84.4625 391.5,85.5C 387.802,85.4476 384.135,85.1143 380.5,84.5C 379.71,83.5987 378.71,82.9321 377.5,82.5C 376.5,80.8333 375.167,79.5 373.5,78.5C 372.344,76.1761 371.344,73.8428 370.5,71.5C 370.264,66.5481 371.264,61.8814 373.5,57.5C 375.908,55.0838 378.574,53.0838 381.5,51.5C 386.98,50.4579 392.313,51.1245 397.5,53.5 Z"/></g>
<g><path style="opacity:0.365" fill="#c5efff" d="M 385.5,29.5 C 385.167,30.5 384.5,31.1667 383.5,31.5C 383.5,30.1667 384.167,29.5 385.5,29.5 Z"/></g>
<g><path style="opacity:0.765" fill="#aee8ff" d="M 390.5,29.5 C 392.262,30.2623 393.262,31.5956 393.5,33.5C 391.738,32.7377 390.738,31.4044 390.5,29.5 Z"/></g>
<g><path style="opacity:0.502" fill="#b1e9ff" d="M 383.5,31.5 C 383.262,33.4044 382.262,34.7377 380.5,35.5C 380.738,33.5956 381.738,32.2623 383.5,31.5 Z"/></g>
<g><path style="opacity:0.424" fill="#c0edff" d="M 380.5,35.5 C 380.167,37.8333 378.833,39.1667 376.5,39.5C 377.5,37.8333 378.833,36.5 380.5,35.5 Z"/></g>
<g><path style="opacity:0.588" fill="#bdecff" d="M 370.5,39.5 C 362.185,37.1618 358.518,40.1618 359.5,48.5C 357.493,38.7117 361.16,35.7117 370.5,39.5 Z"/></g>
<g><path style="opacity:0.624" fill="#c4eeff" d="M 414.5,39.5 C 412.194,39.9926 409.861,40.3259 407.5,40.5C 409.713,38.6883 412.047,38.3549 414.5,39.5 Z"/></g>
<g><path style="opacity:0.463" fill="#b4e9ff" d="M 395.5,37.5 C 398.51,41.6141 402.51,42.6141 407.5,40.5C 406.653,41.9663 405.32,42.7996 403.5,43C 398.75,44.0717 396.083,42.2383 395.5,37.5 Z"/></g>
<g><path style="opacity:0.878" fill="#abe6ff" d="M 414.5,39.5 C 416.735,40.2858 417.735,41.9524 417.5,44.5C 417.013,47.4547 416.013,50.1213 414.5,52.5C 415.597,48.1099 415.597,43.7766 414.5,39.5 Z"/></g>
<g><path style="opacity:1" fill="#9ee1ff" d="M 397.5,53.5 C 392.313,51.1245 386.98,50.4579 381.5,51.5C 383.634,49.9666 386.134,49.2999 389,49.5C 390.833,49.8333 392.667,50.1667 394.5,50.5C 395.993,51.1411 396.993,52.1411 397.5,53.5 Z"/></g>
<g><path style="opacity:0.476" fill="#9ee4ff" d="M 359.5,48.5 C 360.993,49.3121 361.66,50.6455 361.5,52.5C 361.66,54.3545 360.993,55.6879 359.5,56.5C 360.63,53.8633 360.63,51.1967 359.5,48.5 Z"/></g>
<g><path style="opacity:0.573" fill="#c4eeff" d="M 397.5,53.5 C 400.167,54.1667 401.833,55.8333 402.5,58.5C 400.5,57.1667 398.833,55.5 397.5,53.5 Z"/></g>
<g><path style="opacity:0.435" fill="#b8ebff" d="M 359.5,56.5 C 358.738,58.2624 357.404,59.2624 355.5,59.5C 356.262,57.7376 357.596,56.7376 359.5,56.5 Z"/></g>
<g><path style="opacity:0.561" fill="#aee8ff" d="M 355.5,59.5 C 354.738,61.2624 353.404,62.2624 351.5,62.5C 352.262,60.7376 353.596,59.7376 355.5,59.5 Z"/></g>
<g><path style="opacity:0.216" fill="#cbf0ff" d="M 415.5,59.5 C 417.819,59.9925 419.819,60.9925 421.5,62.5C 418.911,62.539 416.911,61.539 415.5,59.5 Z"/></g>
<g><path style="opacity:0.325" fill="#bfedff" d="M 334.5,65.5 C 333.406,64.4183 332.073,63.7517 330.5,63.5C 328.489,64.5186 326.489,65.5186 324.5,66.5C 326.438,62.8308 329.438,61.6641 333.5,63C 334.252,63.6708 334.586,64.5041 334.5,65.5 Z"/></g>
<g><path style="opacity:1" fill="#34c6ff" d="M 307.5,65.5 C 308.539,67.5311 310.205,68.8645 312.5,69.5C 314.446,72.814 317.113,73.314 320.5,71C 322.041,69.6288 323.375,68.1288 324.5,66.5C 326.489,65.5186 328.489,64.5186 330.5,63.5C 332.073,63.7517 333.406,64.4183 334.5,65.5C 334.335,68.8499 334.502,72.1832 335,75.5C 335.383,76.056 335.883,76.3893 336.5,76.5C 336.574,78.4109 337.574,79.5776 339.5,80C 343.813,80.7354 348.147,81.2354 352.5,81.5C 353.219,83.7638 353.552,86.0971 353.5,88.5C 352.094,88.9731 351.427,89.9731 351.5,91.5C 351.5,92.1667 351.167,92.5 350.5,92.5C 347.024,94.8591 346.691,97.5258 349.5,100.5C 350.338,100.842 350.672,101.508 350.5,102.5C 350.427,104.027 351.094,105.027 352.5,105.5C 354.123,108.215 354.79,111.215 354.5,114.5C 354.027,115.906 353.027,116.573 351.5,116.5C 348.482,116.335 345.482,116.502 342.5,117C 341.058,117.377 340.058,118.21 339.5,119.5C 338.883,119.611 338.383,119.944 338,120.5C 337.501,124.486 337.334,128.486 337.5,132.5C 336.538,136.146 334.205,137.313 330.5,136C 329.944,135.617 329.611,135.117 329.5,134.5C 328.089,132.086 326.089,130.419 323.5,129.5C 321.126,128.314 318.792,128.314 316.5,129.5C 313.5,130.5 311.5,132.5 310.5,135.5C 308.345,137.534 306.012,137.867 303.5,136.5C 303.167,135.5 302.5,134.833 301.5,134.5C 301.88,132.302 301.213,130.635 299.5,129.5C 299.5,129.167 299.5,128.833 299.5,128.5C 299.946,125.99 299.28,123.99 297.5,122.5C 292.938,121.091 288.271,119.757 283.5,118.5C 281.447,116.271 281.114,113.938 282.5,111.5C 283.906,111.027 284.573,110.027 284.5,108.5C 288.696,105.007 289.362,100.84 286.5,96C 285.87,94.6898 284.87,93.8565 283.5,93.5C 281.882,89.8979 282.215,86.5645 284.5,83.5C 287.85,83.665 291.183,83.4983 294.5,83C 295.416,82.7216 296.082,82.2216 296.5,81.5C 296.783,80.7109 297.283,80.0442 298,79.5C 298.221,74.78 298.721,70.1133 299.5,65.5C 302.246,62.866 304.912,62.866 307.5,65.5 Z M 324.5,83.5 C 325.514,84.6737 326.847,85.3404 328.5,85.5C 329.5,87.1667 330.833,88.5 332.5,89.5C 334,92.8355 335,96.3355 335.5,100C 335,103.665 334,107.165 332.5,110.5C 330.475,112.196 328.475,113.863 326.5,115.5C 321.619,117.626 316.619,117.959 311.5,116.5C 311.158,115.662 310.492,115.328 309.5,115.5C 308.564,114.026 307.23,113.026 305.5,112.5C 305.573,110.973 304.906,109.973 303.5,109.5C 301.758,104.692 301.091,99.6923 301.5,94.5C 302.674,93.4863 303.34,92.153 303.5,90.5C 305.549,87.4503 308.216,85.117 311.5,83.5C 315.833,82.1667 320.167,82.1667 324.5,83.5 Z"/></g>
<g><path style="opacity:0.718" fill="#a8e5ff" d="M 351.5,62.5 C 350.226,64.9925 349.56,67.6592 349.5,70.5C 348.12,70.0377 347.453,69.0377 347.5,67.5C 348.141,65.1853 349.475,63.5186 351.5,62.5 Z"/></g>
<g><path style="opacity:0.259" fill="#bfeeff" d="M 373.5,57.5 C 371.264,61.8814 370.264,66.5481 370.5,71.5C 369.366,69.0336 369.199,66.367 370,63.5C 370.424,60.9746 371.59,58.9746 373.5,57.5 Z"/></g>
<g><path style="opacity:0.42" fill="#beecff" d="M 307.5,65.5 C 309.754,66.1237 311.421,67.457 312.5,69.5C 310.205,68.8645 308.539,67.5311 307.5,65.5 Z"/></g>
<g><path style="opacity:0.075" fill="#daf5ff" d="M 403.5,60.5 C 405.017,62.4621 405.684,64.7954 405.5,67.5C 405.493,69.3693 405.16,71.036 404.5,72.5C 404.605,68.4517 404.272,64.4517 403.5,60.5 Z"/></g>
<g><path style="opacity:0.51" fill="#a9e7ff" d="M 324.5,66.5 C 323.375,68.1288 322.041,69.6288 320.5,71C 317.113,73.314 314.446,72.814 312.5,69.5C 313.807,70.1534 315.14,70.8201 316.5,71.5C 319.202,69.78 321.868,68.1134 324.5,66.5 Z"/></g>
<g><path style="opacity:0.463" fill="#a6e6ff" d="M 349.5,70.5 C 351.027,70.427 352.027,71.0937 352.5,72.5C 350.973,72.573 349.973,71.9063 349.5,70.5 Z"/></g>
<g><path style="opacity:0.596" fill="#b4eaff" d="M 334.5,65.5 C 335.525,68.9736 336.192,72.6403 336.5,76.5C 335.883,76.3893 335.383,76.056 335,75.5C 334.502,72.1832 334.335,68.8499 334.5,65.5 Z"/></g>
<g><path style="opacity:0.204" fill="#d1f2ff" d="M 352.5,72.5 C 354.027,72.427 355.027,73.0937 355.5,74.5C 353.973,74.573 352.973,73.9063 352.5,72.5 Z"/></g>
<g><path style="opacity:0.773" fill="#b3e9ff" d="M 370.5,71.5 C 371.344,73.8428 372.344,76.1761 373.5,78.5C 370.908,76.9639 369.908,74.6305 370.5,71.5 Z"/></g>
<g><path style="opacity:0.8" fill="#a8e6ff" d="M 404.5,73.5 C 404.975,76.3126 403.975,78.3126 401.5,79.5C 402.508,77.4561 403.508,75.4561 404.5,73.5 Z"/></g>
<g><path style="opacity:0.345" fill="#b2e9ff" d="M 336.5,76.5 C 337.683,77.5045 339.016,78.3378 340.5,79C 344.796,79.0756 348.796,79.9089 352.5,81.5C 348.147,81.2354 343.813,80.7354 339.5,80C 337.574,79.5776 336.574,78.4109 336.5,76.5 Z"/></g>
<g><path style="opacity:0.22" fill="#bbecff" d="M 358.5,75.5 C 360.017,75.5106 361.184,76.1772 362,77.5C 362.789,79.7116 362.622,81.7116 361.5,83.5C 361.984,80.2118 360.984,77.5452 358.5,75.5 Z"/></g>
<g><path style="opacity:0.51" fill="#c3eeff" d="M 373.5,78.5 C 375.167,79.5 376.5,80.8333 377.5,82.5C 375.167,82.1667 373.833,80.8333 373.5,78.5 Z"/></g>
<g><path style="opacity:0.38" fill="#b1e9ff" d="M 324.5,83.5 C 320.167,82.1667 315.833,82.1667 311.5,83.5C 313.29,82.0027 315.456,81.336 318,81.5C 320.544,81.336 322.71,82.0027 324.5,83.5 Z"/></g>
<g><path style="opacity:0.494" fill="#c3eeff" d="M 296.5,81.5 C 296.082,82.2216 295.416,82.7216 294.5,83C 291.183,83.4983 287.85,83.665 284.5,83.5C 288.316,82.5176 292.316,81.8509 296.5,81.5 Z"/></g>
<g><path style="opacity:0.541" fill="#b5eaff" d="M 399.5,81.5 C 399.027,82.9063 398.027,83.573 396.5,83.5C 396.973,82.0937 397.973,81.427 399.5,81.5 Z"/></g>
<g><path style="opacity:0.647" fill="#b6eaff" d="M 328.5,85.5 C 330.833,85.8333 332.167,87.1667 332.5,89.5C 330.833,88.5 329.5,87.1667 328.5,85.5 Z"/></g>
<g><path style="opacity:0.58" fill="#baecff" d="M 352.5,81.5 C 355.734,83.5717 356.067,85.905 353.5,88.5C 353.552,86.0971 353.219,83.7638 352.5,81.5 Z"/></g>
<g><path style="opacity:0.243" fill="#bbecff" d="M 380.5,84.5 C 384.135,85.1143 387.802,85.4476 391.5,85.5C 387.71,86.9024 384.044,86.5691 380.5,84.5 Z"/></g>
<g><path style="opacity:0.788" fill="#b6eaff" d="M 361.5,83.5 C 360.239,87.3735 359.572,91.3735 359.5,95.5C 358.12,95.0377 357.453,94.0377 357.5,92.5C 358.079,89.0695 359.413,86.0695 361.5,83.5 Z"/></g>
<g><path style="opacity:0.624" fill="#a6e6ff" d="M 284.5,83.5 C 282.215,86.5645 281.882,89.8979 283.5,93.5C 280.908,90.8091 280.408,87.8091 282,84.5C 282.671,83.7476 283.504,83.4142 284.5,83.5 Z"/></g>
<g><path style="opacity:0.02" fill="#daf4ff" d="M 353.5,88.5 C 353.573,90.0269 352.906,91.0269 351.5,91.5C 351.427,89.9731 352.094,88.9731 353.5,88.5 Z"/></g>
<g><path style="opacity:0.149" fill="#daf4ff" d="M 303.5,90.5 C 303.34,92.153 302.674,93.4863 301.5,94.5C 301.229,92.6203 301.896,91.287 303.5,90.5 Z"/></g>
<g><path style="opacity:0.529" fill="#abe8ff" d="M 377.5,95.5 C 375.215,94.4537 372.882,94.4537 370.5,95.5C 371.134,94.0532 372.301,93.3866 374,93.5C 375.699,93.3866 376.866,94.0532 377.5,95.5 Z"/></g>
<g><path style="opacity:0.745" fill="#b7eaff" d="M 415.5,96.5 C 414.359,97.339 413.026,98.0057 411.5,98.5C 408.452,97.6544 405.452,96.6544 402.5,95.5C 400.21,96.4671 398.21,97.8004 396.5,99.5C 397.212,96.6219 399.046,94.9552 402,94.5C 406.401,95.8668 410.901,96.5335 415.5,96.5 Z"/></g>
<g><path style="opacity:0.573" fill="#b2e9ff" d="M 350.5,92.5 C 350.249,94.1703 349.582,95.6703 348.5,97C 349.337,98.0113 349.67,99.1779 349.5,100.5C 346.691,97.5258 347.024,94.8591 350.5,92.5 Z"/></g>
<g><path style="opacity:0.573" fill="#aae6ff" d="M 301.5,94.5 C 301.091,99.6923 301.758,104.692 303.5,109.5C 301.386,108.64 300.22,106.973 300,104.5C 299.333,101.5 299.333,98.5 300,95.5C 300.383,94.944 300.883,94.6107 301.5,94.5 Z"/></g>
<g><path style="opacity:0.216" fill="#c9f0ff" d="M 379.5,97.5 C 381.341,99.8485 382.674,102.515 383.5,105.5C 381.127,103.421 379.794,100.754 379.5,97.5 Z"/></g>
<g><path style="opacity:0.592" fill="#9de2ff" d="M 283.5,93.5 C 284.87,93.8565 285.87,94.6898 286.5,96C 289.362,100.84 288.696,105.007 284.5,108.5C 285.358,105.95 286.358,103.45 287.5,101C 286.014,98.5255 284.681,96.0255 283.5,93.5 Z"/></g>
<g><path style="opacity:0.365" fill="#b9ebff" d="M 332.5,89.5 C 335.456,92.0922 336.789,95.4255 336.5,99.5C 336.519,102.812 335.852,105.979 334.5,109C 334.164,110.03 333.497,110.53 332.5,110.5C 334,107.165 335,103.665 335.5,100C 335,96.3355 334,92.8355 332.5,89.5 Z"/></g>
<g><path style="opacity:0.408" fill="#b4eaff" d="M 350.5,102.5 C 351.906,102.973 352.573,103.973 352.5,105.5C 351.094,105.027 350.427,104.027 350.5,102.5 Z"/></g>
<g><path style="opacity:0.039" fill="#d4f3ff" d="M 392.5,104.5 C 392.5,105.833 391.833,106.5 390.5,106.5C 390.833,105.5 391.5,104.833 392.5,104.5 Z"/></g>
<g><path style="opacity:0.686" fill="#b0e9ff" d="M 383.5,105.5 C 385.764,106.219 388.097,106.552 390.5,106.5C 387.905,109.067 385.572,108.734 383.5,105.5 Z"/></g>
<g><path style="opacity:0.227" fill="#cdf1ff" d="M 284.5,108.5 C 284.573,110.027 283.906,111.027 282.5,111.5C 282.427,109.973 283.094,108.973 284.5,108.5 Z"/></g>
<g><path style="opacity:0.529" fill="#bcedff" d="M 303.5,109.5 C 304.906,109.973 305.573,110.973 305.5,112.5C 304.094,112.027 303.427,111.027 303.5,109.5 Z"/></g>
<g><path style="opacity:0.671" fill="#b3e9ff" d="M 352.5,105.5 C 354.836,106.956 356.169,109.122 356.5,112C 356.361,113.301 355.695,114.134 354.5,114.5C 354.79,111.215 354.123,108.215 352.5,105.5 Z"/></g>
<g><path style="opacity:0.035" fill="#d4f3ff" d="M 377.5,110.5 C 379.5,110.5 380.5,111.5 380.5,113.5C 379.167,112.833 378.167,111.833 377.5,110.5 Z"/></g>
<g><path style="opacity:1" fill="#34c6ff" d="M 377.5,110.5 C 378.167,111.833 379.167,112.833 380.5,113.5C 382.485,116.798 384.485,120.131 386.5,123.5C 387.274,124.147 388.274,124.48 389.5,124.5C 393.095,123.801 396.595,122.801 400,121.5C 401.533,121.773 403.033,122.106 404.5,122.5C 405.833,124.167 405.833,125.833 404.5,127.5C 403.034,128.347 402.2,129.68 402,131.5C 401.199,134.367 401.366,137.034 402.5,139.5C 403.112,142.697 405.112,144.031 408.5,143.5C 411.198,143.845 413.198,145.178 414.5,147.5C 414.483,149.565 414.15,151.565 413.5,153.5C 413.158,154.338 412.492,154.672 411.5,154.5C 408.911,154.461 406.911,155.461 405.5,157.5C 402.95,157.884 401.617,159.384 401.5,162C 403.007,167.059 403.673,172.226 403.5,177.5C 402.688,178.993 401.355,179.66 399.5,179.5C 395.648,177.831 391.648,177.331 387.5,178C 385.266,180.063 383.266,182.229 381.5,184.5C 380.094,184.973 379.427,185.973 379.5,187.5C 376.162,187.935 373.162,187.268 370.5,185.5C 369.662,185.158 369.328,184.492 369.5,183.5C 369.995,179.54 368.328,177.207 364.5,176.5C 361.455,176.508 358.455,176.841 355.5,177.5C 352.881,177.768 350.381,177.435 348,176.5C 347.503,173.854 347.336,171.187 347.5,168.5C 349.343,166.841 350.343,164.675 350.5,162C 350.613,160.301 349.947,159.134 348.5,158.5C 348.027,157.094 347.027,156.427 345.5,156.5C 345.167,156.5 344.833,156.5 344.5,156.5C 343.817,154.824 342.483,154.157 340.5,154.5C 337.408,151.71 336.742,148.376 338.5,144.5C 340.404,144.262 341.738,143.262 342.5,141.5C 344.027,141.573 345.027,140.906 345.5,139.5C 346.496,139.586 347.329,139.252 348,138.5C 348.801,135.633 348.634,132.966 347.5,130.5C 346.167,127.5 346.167,124.5 347.5,121.5C 353.622,121.2 359.622,120.867 365.5,120.5C 365.5,119.833 365.833,119.5 366.5,119.5C 367.906,119.027 368.573,118.027 368.5,116.5C 370.63,114.873 372.63,113.04 374.5,111C 375.448,110.517 376.448,110.351 377.5,110.5 Z M 379.5,132.5 C 379.833,132.5 380.167,132.5 380.5,132.5C 382.456,133.492 384.456,134.492 386.5,135.5C 386.833,136.5 387.5,137.167 388.5,137.5C 389.026,139.23 390.026,140.564 391.5,141.5C 392.162,145.466 392.495,149.466 392.5,153.5C 392.5,153.833 392.5,154.167 392.5,154.5C 390.992,156.181 389.992,158.181 389.5,160.5C 388.167,161.167 387.167,162.167 386.5,163.5C 384.973,163.427 383.973,164.094 383.5,165.5C 383.167,165.5 382.833,165.5 382.5,165.5C 375.715,167.339 369.382,166.339 363.5,162.5C 362.488,161.128 361.488,159.795 360.5,158.5C 360.204,156.597 359.537,154.93 358.5,153.5C 358.119,148.198 359.119,143.198 361.5,138.5C 363.191,137.136 364.858,135.803 366.5,134.5C 370.636,132.817 374.969,132.15 379.5,132.5 Z"/></g>
<g><path style="opacity:0.525" fill="#ade7ff" d="M 305.5,112.5 C 307.23,113.026 308.564,114.026 309.5,115.5C 307.368,115.446 306.035,114.446 305.5,112.5 Z"/></g>
<g><path style="opacity:0.243" fill="#c2eeff" d="M 377.5,110.5 C 376.448,110.351 375.448,110.517 374.5,111C 372.63,113.04 370.63,114.873 368.5,116.5C 370.126,111.795 373.126,109.795 377.5,110.5 Z"/></g>
<g><path style="opacity:0.639" fill="#afe8ff" d="M 351.5,116.5 C 347.569,117.311 343.569,118.311 339.5,119.5C 340.058,118.21 341.058,117.377 342.5,117C 345.482,116.502 348.482,116.335 351.5,116.5 Z"/></g>
<g><path style="opacity:0.484" fill="#9be4ff" d="M 326.5,115.5 C 324.241,117.755 321.408,118.755 318,118.5C 315.456,118.664 313.29,117.997 311.5,116.5C 316.619,117.959 321.619,117.626 326.5,115.5 Z"/></g>
<g><path style="opacity:0.294" fill="#c9f0ff" d="M 368.5,116.5 C 368.573,118.027 367.906,119.027 366.5,119.5C 366.427,117.973 367.094,116.973 368.5,116.5 Z"/></g>
<g><path style="opacity:0.067" fill="#d7f4ff" d="M 365.5,120.5 C 359.622,120.867 353.622,121.2 347.5,121.5C 347.611,120.883 347.944,120.383 348.5,120C 354.167,119.758 359.833,119.925 365.5,120.5 Z"/></g>
<g><path style="opacity:0.761" fill="#aae7ff" d="M 404.5,122.5 C 403.033,122.106 401.533,121.773 400,121.5C 396.595,122.801 393.095,123.801 389.5,124.5C 388.274,124.48 387.274,124.147 386.5,123.5C 391.01,122.669 395.51,121.669 400,120.5C 402.008,120.307 403.508,120.974 404.5,122.5 Z"/></g>
<g><path style="opacity:0.494" fill="#b9ecff" d="M 297.5,122.5 C 299.28,123.99 299.946,125.99 299.5,128.5C 298.262,126.786 297.595,124.786 297.5,122.5 Z"/></g>
<g><path style="opacity:0.196" fill="#caf0ff" d="M 339.5,119.5 C 339.024,123.993 338.358,128.327 337.5,132.5C 337.334,128.486 337.501,124.486 338,120.5C 338.383,119.944 338.883,119.611 339.5,119.5 Z"/></g>
<g><path style="opacity:0.729" fill="#b3eaff" d="M 323.5,129.5 C 326.089,130.419 328.089,132.086 329.5,134.5C 326.911,133.581 324.911,131.914 323.5,129.5 Z"/></g>
<g><path style="opacity:0.588" fill="#beecff" d="M 404.5,127.5 C 403.207,131.384 402.541,135.384 402.5,139.5C 401.366,137.034 401.199,134.367 402,131.5C 402.2,129.68 403.034,128.347 404.5,127.5 Z"/></g>
<g><path style="opacity:0.522" fill="#b8ebff" d="M 299.5,129.5 C 301.213,130.635 301.88,132.302 301.5,134.5C 300.069,133.22 299.402,131.553 299.5,129.5 Z"/></g>
<g><path style="opacity:0.267" fill="#c6efff" d="M 379.5,132.5 C 374.969,132.15 370.636,132.817 366.5,134.5C 367.058,133.21 368.058,132.377 369.5,132C 373.027,131.192 376.36,131.359 379.5,132.5 Z"/></g>
<g><path style="opacity:0.847" fill="#a8e6ff" d="M 380.5,132.5 C 383.313,132.025 385.313,133.025 386.5,135.5C 384.456,134.492 382.456,133.492 380.5,132.5 Z"/></g>
<g><path style="opacity:0.039" fill="#d8f4ff" d="M 316.5,129.5 C 314.833,131.833 312.833,133.833 310.5,135.5C 311.5,132.5 313.5,130.5 316.5,129.5 Z"/></g>
<g><path style="opacity:0.004" fill="#ddf5ff" d="M 301.5,134.5 C 302.5,134.833 303.167,135.5 303.5,136.5C 302.167,136.5 301.5,135.833 301.5,134.5 Z"/></g>
<g><path style="opacity:0.796" fill="#b1e9ff" d="M 388.5,137.5 C 390.446,138.035 391.446,139.368 391.5,141.5C 390.026,140.564 389.026,139.23 388.5,137.5 Z"/></g>
<g><path style="opacity:0.745" fill="#b1e8ff" d="M 347.5,130.5 C 348.634,132.966 348.801,135.633 348,138.5C 347.329,139.252 346.496,139.586 345.5,139.5C 347.268,136.838 347.935,133.838 347.5,130.5 Z"/></g>
<g><path style="opacity:0.616" fill="#ace8ff" d="M 345.5,139.5 C 345.027,140.906 344.027,141.573 342.5,141.5C 342.973,140.094 343.973,139.427 345.5,139.5 Z"/></g>
<g><path style="opacity:0.608" fill="#a6e6ff" d="M 342.5,141.5 C 341.738,143.262 340.404,144.262 338.5,144.5C 339.262,142.738 340.596,141.738 342.5,141.5 Z"/></g>
<g><path style="opacity:1" fill="#a1e1ff" d="M 402.5,139.5 C 404.537,140.846 406.537,142.18 408.5,143.5C 405.112,144.031 403.112,142.697 402.5,139.5 Z"/></g>
<g><path style="opacity:0.176" fill="#d0f2ff" d="M 391.5,141.5 C 392.926,143.679 393.592,146.179 393.5,149C 393.492,150.707 393.158,152.207 392.5,153.5C 392.495,149.466 392.162,145.466 391.5,141.5 Z"/></g>
<g><path style="opacity:0.898" fill="#a6e5ff" d="M 338.5,144.5 C 336.742,148.376 337.408,151.71 340.5,154.5C 336.252,153.412 334.752,150.745 336,146.5C 336.708,145.619 337.542,144.953 338.5,144.5 Z"/></g>
<g><path style="opacity:0.176" fill="#c5efff" d="M 361.5,138.5 C 359.119,143.198 358.119,148.198 358.5,153.5C 357.359,150.36 357.192,147.027 358,143.5C 358.697,141.416 359.864,139.749 361.5,138.5 Z"/></g>
<g><path style="opacity:0.18" fill="#dcf5ff" d="M 414.5,147.5 C 415.139,148.097 415.472,148.93 415.5,150C 415.613,151.699 414.947,152.866 413.5,153.5C 414.15,151.565 414.483,149.565 414.5,147.5 Z"/></g>
<g><path style="opacity:0.847" fill="#ace6ff" d="M 340.5,154.5 C 342.483,154.157 343.817,154.824 344.5,156.5C 342.847,156.34 341.514,155.674 340.5,154.5 Z"/></g>
<g><path style="opacity:0.294" fill="#cef1ff" d="M 411.5,154.5 C 409.819,156.008 407.819,157.008 405.5,157.5C 406.911,155.461 408.911,154.461 411.5,154.5 Z"/></g>
<g><path style="opacity:0.318" fill="#c3efff" d="M 345.5,156.5 C 347.027,156.427 348.027,157.094 348.5,158.5C 346.973,158.573 345.973,157.906 345.5,156.5 Z"/></g>
<g><path style="opacity:0.867" fill="#a9e5ff" d="M 358.5,153.5 C 359.537,154.93 360.204,156.597 360.5,158.5C 358.744,157.448 358.077,155.781 358.5,153.5 Z"/></g>
<g><path style="opacity:0.835" fill="#9ee3ff" d="M 392.5,154.5 C 392.969,157.393 391.969,159.393 389.5,160.5C 389.992,158.181 390.992,156.181 392.5,154.5 Z"/></g>
<g><path style="opacity:0.318" fill="#beedff" d="M 348.5,158.5 C 349.947,159.134 350.613,160.301 350.5,162C 350.343,164.675 349.343,166.841 347.5,168.5C 349.16,165.23 349.494,161.897 348.5,158.5 Z"/></g>
<g><path style="opacity:0.522" fill="#b9ebff" d="M 386.5,163.5 C 386.027,164.906 385.027,165.573 383.5,165.5C 383.973,164.094 384.973,163.427 386.5,163.5 Z"/></g>
<g><path style="opacity:0.208" fill="#c6efff" d="M 363.5,162.5 C 369.382,166.339 375.715,167.339 382.5,165.5C 382.389,166.117 382.056,166.617 381.5,167C 375.526,168.11 369.86,167.276 364.5,164.5C 363.702,164.043 363.369,163.376 363.5,162.5 Z"/></g>
<g><path style="opacity:0.478" fill="#c2eeff" d="M 405.5,157.5 C 404.315,158.857 403.315,160.357 402.5,162C 403.657,165.96 404.657,169.96 405.5,174C 405.613,175.699 404.947,176.866 403.5,177.5C 403.673,172.226 403.007,167.059 401.5,162C 401.617,159.384 402.95,157.884 405.5,157.5 Z"/></g>
<g><path style="opacity:0.26" fill="#d5f3ff" d="M 457.5,173.5 C 527.998,172.501 598.665,172.167 669.5,172.5C 669.5,177.833 669.5,183.167 669.5,188.5C 598.665,188.833 527.998,188.499 457.5,187.5C 528.002,187.833 598.335,187.499 668.5,186.5C 668.5,182.167 668.5,177.833 668.5,173.5C 598.5,173.5 528.5,173.5 458.5,173.5C 458.167,173.5 457.833,173.5 457.5,173.5 Z"/></g>
<g><path style="opacity:0.724" fill="#6cd8ff" d="M 250.5,174.5 C 250.5,174.833 250.5,175.167 250.5,175.5C 250.167,175.5 249.833,175.5 249.5,175.5C 179.5,175.5 109.5,175.5 39.5,175.5C 39.5,179.5 39.5,183.5 39.5,187.5C 39.5,187.833 39.5,188.167 39.5,188.5C 39.1667,188.5 38.8333,188.5 38.5,188.5C 38.5,183.833 38.5,179.167 38.5,174.5C 109.167,174.5 179.833,174.5 250.5,174.5 Z"/></g>
<g><path style="opacity:1" fill="#1ec3ff" d="M 458.5,173.5 C 528.5,173.5 598.5,173.5 668.5,173.5C 668.5,177.833 668.5,182.167 668.5,186.5C 598.5,186.5 528.5,186.5 458.5,186.5C 458.5,182.167 458.5,177.833 458.5,173.5 Z"/></g>
<g><path style="opacity:1" fill="#1ec3ff" d="M 249.5,175.5 C 249.5,179.5 249.5,183.5 249.5,187.5C 179.5,187.5 109.5,187.5 39.5,187.5C 39.5,183.5 39.5,179.5 39.5,175.5C 109.5,175.5 179.5,175.5 249.5,175.5 Z"/></g>
<g><path style="opacity:0.678" fill="#b4eaff" d="M 347.5,168.5 C 347.336,171.187 347.503,173.854 348,176.5C 350.381,177.435 352.881,177.768 355.5,177.5C 352.218,180.176 349.051,179.842 346,176.5C 345.297,173.518 345.797,170.851 347.5,168.5 Z"/></g>
<g><path style="opacity:1" fill="#a0e2ff" d="M 364.5,176.5 C 368.328,177.207 369.995,179.54 369.5,183.5C 368.091,181.028 366.424,178.695 364.5,176.5 Z"/></g>
<g><path style="opacity:0.02" fill="#d8f4ff" d="M 381.5,184.5 C 381.573,186.027 380.906,187.027 379.5,187.5C 379.427,185.973 380.094,184.973 381.5,184.5 Z"/></g>
<g><path style="opacity:0.765" fill="#6fd8ff" d="M 457.5,173.5 C 457.833,173.5 458.167,173.5 458.5,173.5C 458.5,177.833 458.5,182.167 458.5,186.5C 528.5,186.5 598.5,186.5 668.5,186.5C 598.335,187.499 528.002,187.833 457.5,187.5C 456.256,182.702 456.256,178.035 457.5,173.5 Z"/></g>
<g><path style="opacity:1" fill="#2ec8ff" d="M 249.5,175.5 C 249.833,175.5 250.167,175.5 250.5,175.5C 250.5,179.833 250.5,184.167 250.5,188.5C 180.167,188.5 109.833,188.5 39.5,188.5C 39.5,188.167 39.5,187.833 39.5,187.5C 109.5,187.5 179.5,187.5 249.5,187.5C 249.5,183.5 249.5,179.5 249.5,175.5 Z"/></g>
<g><path style="opacity:0.776" fill="#b9eaff" d="M 370.5,185.5 C 373.162,187.268 376.162,187.935 379.5,187.5C 377.08,189.924 374.413,190.091 371.5,188C 370.748,187.329 370.414,186.496 370.5,185.5 Z"/></g>
<g><path style="opacity:0.327" fill="#baedff" d="M 250.5,174.5 C 251.487,179.305 251.821,184.305 251.5,189.5C 180.331,189.833 109.331,189.499 38.5,188.5C 38.8333,188.5 39.1667,188.5 39.5,188.5C 109.833,188.5 180.167,188.5 250.5,188.5C 250.5,184.167 250.5,179.833 250.5,175.5C 250.5,175.167 250.5,174.833 250.5,174.5 Z"/></g>
<g><path style="opacity:0.193" fill="#d4f3ff" d="M 243.5,229.5 C 243.167,229.5 242.833,229.5 242.5,229.5C 244.635,227.631 247.302,226.964 250.5,227.5C 250.5,226.5 250.5,225.5 250.5,224.5C 243.5,224.5 236.5,224.5 229.5,224.5C 229.5,225.5 229.5,226.5 229.5,227.5C 228.566,226.432 228.232,225.099 228.5,223.5C 236.167,223.5 243.833,223.5 251.5,223.5C 251.5,225.167 251.5,226.833 251.5,228.5C 248.615,228.194 245.948,228.527 243.5,229.5 Z"/></g>
<g><path style="opacity:0.198" fill="#d6f4ff" d="M 294.5,230.5 C 294.414,229.504 294.748,228.671 295.5,228C 298.146,227.503 300.813,227.336 303.5,227.5C 303.5,226.5 303.5,225.5 303.5,224.5C 296.5,224.5 289.5,224.5 282.5,224.5C 282.5,225.5 282.5,226.5 282.5,227.5C 281.566,226.432 281.232,225.099 281.5,223.5C 289.167,223.5 296.833,223.5 304.5,223.5C 304.5,225.167 304.5,226.833 304.5,228.5C 300.838,228.034 297.505,228.701 294.5,230.5 Z"/></g>
<g><path style="opacity:0.198" fill="#d3f3ff" d="M 323.5,224.5 C 319.5,224.5 315.5,224.5 311.5,224.5C 311.5,225.5 311.5,226.5 311.5,227.5C 314.167,227.5 316.833,227.5 319.5,227.5C 319.5,227.833 319.5,228.167 319.5,228.5C 316.482,228.665 313.482,228.498 310.5,228C 309.483,226.951 309.316,225.784 310,224.5C 314.6,223.177 319.1,223.177 323.5,224.5 Z"/></g>
<g><path style="opacity:0.188" fill="#c7efff" d="M 465.5,223.5 C 468.916,223.528 471.916,224.528 474.5,226.5C 471.215,226.072 468.215,225.072 465.5,223.5 Z"/></g>
<g><path style="opacity:0.998" fill="#2fc7ff" d="M 398.5,224.5 C 402.5,224.5 406.5,224.5 410.5,224.5C 410.5,225.5 410.5,226.5 410.5,227.5C 407.5,227.5 404.5,227.5 401.5,227.5C 401.5,251.5 401.5,275.5 401.5,299.5C 404.5,299.5 407.5,299.5 410.5,299.5C 410.5,300.5 410.5,301.5 410.5,302.5C 403.833,302.5 397.167,302.5 390.5,302.5C 390.167,302.5 389.833,302.5 389.5,302.5C 389.5,301.5 389.5,300.5 389.5,299.5C 392.5,299.5 395.5,299.5 398.5,299.5C 398.667,276.831 398.5,254.164 398,231.5C 397.283,232.044 396.783,232.711 396.5,233.5C 395.094,233.973 394.427,234.973 394.5,236.5C 394.167,237.5 393.5,238.167 392.5,238.5C 391.833,237.833 391.167,237.167 390.5,236.5C 391.11,235.609 391.443,234.609 391.5,233.5C 393.587,232.415 394.92,230.749 395.5,228.5C 397.262,227.738 398.262,226.404 398.5,224.5 Z"/></g>
<g><path style="opacity:0.997" fill="#69d0ff" d="M 464.5,223.5 C 464.833,223.5 465.167,223.5 465.5,223.5C 468.215,225.072 471.215,226.072 474.5,226.5C 479.358,227.693 481.358,230.859 480.5,236C 480.333,237.833 480.167,239.667 480,241.5C 478.384,242.801 476.884,242.801 475.5,241.5C 476.08,237.351 475.414,233.684 473.5,230.5C 469.686,229.632 466.019,228.632 462.5,227.5C 461.036,226.84 459.369,226.507 457.5,226.5C 454.514,226.382 451.848,227.048 449.5,228.5C 448.432,229.434 447.099,229.768 445.5,229.5C 443.597,229.204 441.93,228.537 440.5,227.5C 444.562,226.641 448.562,225.474 452.5,224C 456.486,223.501 460.486,223.334 464.5,223.5 Z"/></g>
<g><path style="opacity:0.995" fill="#54cbff" d="M 242.5,229.5 C 244.097,231.756 243.431,233.09 240.5,233.5C 237.934,229.596 234.268,227.596 229.5,227.5C 229.5,226.5 229.5,225.5 229.5,224.5C 236.5,224.5 243.5,224.5 250.5,224.5C 250.5,225.5 250.5,226.5 250.5,227.5C 247.302,226.964 244.635,227.631 242.5,229.5 Z"/></g>
<g><path style="opacity:0.999" fill="#64cfff" d="M 323.5,224.5 C 323.427,226.027 324.094,227.027 325.5,227.5C 327.984,229.8 329.984,232.467 331.5,235.5C 332.08,237.749 333.413,239.415 335.5,240.5C 337.262,241.262 338.262,242.596 338.5,244.5C 339.08,246.749 340.413,248.415 342.5,249.5C 344.262,250.262 345.262,251.596 345.5,253.5C 346.08,255.749 347.413,257.415 349.5,258.5C 351.984,260.8 353.984,263.467 355.5,266.5C 356.08,268.749 357.413,270.415 359.5,271.5C 360.117,271.611 360.617,271.944 361,272.5C 362.946,269.58 365.113,266.913 367.5,264.5C 369.587,263.415 370.92,261.749 371.5,259.5C 371.738,257.596 372.738,256.262 374.5,255.5C 376.262,254.738 377.262,253.404 377.5,251.5C 379.587,250.415 380.92,248.749 381.5,246.5C 381.738,244.596 382.738,243.262 384.5,242.5C 386.262,241.738 387.262,240.404 387.5,238.5C 388.5,237.833 389.5,237.167 390.5,236.5C 391.167,237.167 391.833,237.833 392.5,238.5C 382.614,252.726 371.947,266.393 360.5,279.5C 348.594,264.69 336.928,249.69 325.5,234.5C 325.443,233.391 325.11,232.391 324.5,231.5C 324.44,230.957 324.107,230.624 323.5,230.5C 322.171,253.33 322.171,275.996 323.5,298.5C 326.287,299.477 329.287,299.81 332.5,299.5C 333.791,300.542 333.791,301.708 332.5,303C 325.321,303.821 318.321,303.655 311.5,302.5C 311.5,301.5 311.5,300.5 311.5,299.5C 314.5,299.5 317.5,299.5 320.5,299.5C 320.831,275.328 320.498,251.328 319.5,227.5C 316.833,227.5 314.167,227.5 311.5,227.5C 311.5,226.5 311.5,225.5 311.5,224.5C 315.5,224.5 319.5,224.5 323.5,224.5 Z"/></g>
<g><path style="opacity:0.718" fill="#abe7ff" d="M 398.5,224.5 C 398.262,226.404 397.262,227.738 395.5,228.5C 395.738,226.596 396.738,225.262 398.5,224.5 Z"/></g>
<g><path style="opacity:0.337" fill="#c5efff" d="M 323.5,224.5 C 324.906,224.973 325.573,225.973 325.5,227.5C 324.094,227.027 323.427,226.027 323.5,224.5 Z"/></g>
<g><path style="opacity:1" fill="#aae4ff" d="M 464.5,223.5 C 460.486,223.334 456.486,223.501 452.5,224C 448.562,225.474 444.562,226.641 440.5,227.5C 447.979,222.774 455.979,221.441 464.5,223.5 Z"/></g>
<g><path style="opacity:0.256" fill="#c2eeff" d="M 462.5,227.5 C 458.143,227.586 453.81,227.92 449.5,228.5C 451.848,227.048 454.514,226.382 457.5,226.5C 459.369,226.507 461.036,226.84 462.5,227.5 Z"/></g>
<g><path style="opacity:0.139" fill="#e0f6ff" d="M 282.5,227.5 C 285.518,227.335 288.518,227.502 291.5,228C 290.934,228.995 290.267,229.828 289.5,230.5C 287.492,228.917 285.159,227.917 282.5,227.5 Z"/></g>
<g><path style="opacity:0.695" fill="#a4e5ff" d="M 319.5,227.5 C 320.498,251.328 320.831,275.328 320.5,299.5C 317.5,299.5 314.5,299.5 311.5,299.5C 311.5,300.5 311.5,301.5 311.5,302.5C 310.046,301.48 309.713,300.313 310.5,299C 313.5,298.667 316.5,298.333 319.5,298C 318.199,274.858 318.199,251.692 319.5,228.5C 319.5,228.167 319.5,227.833 319.5,227.5 Z"/></g>
<g><path style="opacity:0.31" fill="#c6efff" d="M 398.5,224.5 C 402.634,223.515 406.968,223.182 411.5,223.5C 411.5,225.167 411.5,226.833 411.5,228.5C 408.5,228.5 405.5,228.5 402.5,228.5C 402.5,251.833 402.5,275.167 402.5,298.5C 405.518,298.335 408.518,298.502 411.5,299C 412.833,300.333 412.833,301.667 411.5,303C 404.321,303.821 397.321,303.655 390.5,302.5C 397.167,302.5 403.833,302.5 410.5,302.5C 410.5,301.5 410.5,300.5 410.5,299.5C 407.5,299.5 404.5,299.5 401.5,299.5C 401.5,275.5 401.5,251.5 401.5,227.5C 404.5,227.5 407.5,227.5 410.5,227.5C 410.5,226.5 410.5,225.5 410.5,224.5C 406.5,224.5 402.5,224.5 398.5,224.5 Z"/></g>
<g><path style="opacity:1" fill="#78d5ff" d="M 440.5,227.5 C 441.93,228.537 443.597,229.204 445.5,229.5C 436.886,233.781 430.219,240.114 425.5,248.5C 425.771,246.62 425.104,245.287 423.5,244.5C 424.11,243.609 424.443,242.609 424.5,241.5C 428.276,235.057 433.61,230.39 440.5,227.5 Z"/></g>
<g><path style="opacity:0.533" fill="#b4eaff" d="M 395.5,228.5 C 394.92,230.749 393.587,232.415 391.5,233.5C 392.08,231.251 393.413,229.585 395.5,228.5 Z"/></g>
<g><path style="opacity:0.089" fill="#e3f7ff" d="M 473.5,230.5 C 475.414,233.684 476.08,237.351 475.5,241.5C 474.77,237.939 474.103,234.273 473.5,230.5 Z"/></g>
<g><path style="opacity:0.683" fill="#70d9ff" d="M 324.5,231.5 C 323.503,253.66 323.169,275.994 323.5,298.5C 322.171,275.996 322.171,253.33 323.5,230.5C 324.107,230.624 324.44,230.957 324.5,231.5 Z"/></g>
<g><path style="opacity:0.184" fill="#cff2ff" d="M 389.5,302.5 C 388.566,301.432 388.232,300.099 388.5,298.5C 391.5,298.5 394.5,298.5 397.5,298.5C 397.831,276.66 397.497,254.994 396.5,233.5C 396.783,232.711 397.283,232.044 398,231.5C 398.5,254.164 398.667,276.831 398.5,299.5C 395.5,299.5 392.5,299.5 389.5,299.5C 389.5,300.5 389.5,301.5 389.5,302.5 Z"/></g>
<g><path style="opacity:0.052" fill="#ebf9ff" d="M 324.5,231.5 C 325.11,232.391 325.443,233.391 325.5,234.5C 324.503,255.66 324.169,276.993 324.5,298.5C 327.385,298.194 330.052,298.527 332.5,299.5C 329.287,299.81 326.287,299.477 323.5,298.5C 323.169,275.994 323.503,253.66 324.5,231.5 Z"/></g>
<g><path style="opacity:0.02" fill="#def6ff" d="M 396.5,233.5 C 396.573,235.027 395.906,236.027 394.5,236.5C 394.427,234.973 395.094,233.973 396.5,233.5 Z"/></g>
<g><path style="opacity:0.875" fill="#aae6ff" d="M 331.5,235.5 C 333.587,236.585 334.92,238.251 335.5,240.5C 333.413,239.415 332.08,237.749 331.5,235.5 Z"/></g>
<g><path style="opacity:0.259" fill="#c1edff" d="M 391.5,233.5 C 391.443,234.609 391.11,235.609 390.5,236.5C 389.5,237.167 388.5,237.833 387.5,238.5C 388.08,236.251 389.413,234.585 391.5,233.5 Z"/></g>
<g><path style="opacity:0.671" fill="#b6ebff" d="M 387.5,238.5 C 387.262,240.404 386.262,241.738 384.5,242.5C 384.738,240.596 385.738,239.262 387.5,238.5 Z"/></g>
<g><path style="opacity:1" fill="#69d1ff" d="M 294.5,230.5 C 289.919,240.003 284.586,249.003 278.5,257.5C 277.094,257.973 276.427,258.973 276.5,260.5C 274.668,264.836 272.335,268.836 269.5,272.5C 268.68,269.207 267.013,268.874 264.5,271.5C 264.167,271.5 263.833,271.5 263.5,271.5C 255.334,259.174 247.667,246.507 240.5,233.5C 243.431,233.09 244.097,231.756 242.5,229.5C 242.833,229.5 243.167,229.5 243.5,229.5C 243.833,230.167 244.167,230.833 244.5,231.5C 244.427,233.027 245.094,234.027 246.5,234.5C 247.674,235.514 248.34,236.847 248.5,238.5C 248.427,240.027 249.094,241.027 250.5,241.5C 251.338,241.842 251.672,242.508 251.5,243.5C 251.427,245.027 252.094,246.027 253.5,246.5C 254.338,246.842 254.672,247.508 254.5,248.5C 254.427,250.027 255.094,251.027 256.5,251.5C 257.338,251.842 257.672,252.508 257.5,253.5C 257.427,255.027 258.094,256.027 259.5,256.5C 260.338,256.842 260.672,257.508 260.5,258.5C 260.427,260.027 261.094,261.027 262.5,261.5C 263.338,261.842 263.672,262.508 263.5,263.5C 263.427,265.027 264.094,266.027 265.5,266.5C 266.117,266.611 266.617,266.944 267,267.5C 267.278,266.584 267.778,265.918 268.5,265.5C 270.408,264.514 271.408,262.848 271.5,260.5C 272.906,260.027 273.573,259.027 273.5,257.5C 273.328,256.508 273.662,255.842 274.5,255.5C 275.906,255.027 276.573,254.027 276.5,252.5C 276.328,251.508 276.662,250.842 277.5,250.5C 278.906,250.027 279.573,249.027 279.5,247.5C 280.079,244.669 281.412,242.336 283.5,240.5C 284.906,240.027 285.573,239.027 285.5,237.5C 286.079,234.669 287.412,232.336 289.5,230.5C 290.267,229.828 290.934,228.995 291.5,228C 288.518,227.502 285.518,227.335 282.5,227.5C 282.5,226.5 282.5,225.5 282.5,224.5C 289.5,224.5 296.5,224.5 303.5,224.5C 303.5,225.5 303.5,226.5 303.5,227.5C 300.813,227.336 298.146,227.503 295.5,228C 294.748,228.671 294.414,229.504 294.5,230.5 Z"/></g>
<g><path style="opacity:0.192" fill="#d3f3ff" d="M 248.5,238.5 C 249.906,238.973 250.573,239.973 250.5,241.5C 249.094,241.027 248.427,240.027 248.5,238.5 Z"/></g>
<g><path style="opacity:0.298" fill="#c2eeff" d="M 285.5,237.5 C 285.573,239.027 284.906,240.027 283.5,240.5C 283.427,238.973 284.094,237.973 285.5,237.5 Z"/></g>
<g><path style="opacity:0.118" fill="#e6f8ff" d="M 244.5,231.5 C 245.906,231.973 246.573,232.973 246.5,234.5C 245.094,234.027 244.427,233.027 244.5,231.5 Z"/></g>
<g><path style="opacity:0.204" fill="#d2f2ff" d="M 424.5,241.5 C 424.443,242.609 424.11,243.609 423.5,244.5C 423.167,244.5 422.833,244.5 422.5,244.5C 422.427,242.973 423.094,241.973 424.5,241.5 Z"/></g>
<g><path style="opacity:0.224" fill="#cdf1ff" d="M 251.5,243.5 C 252.906,243.973 253.573,244.973 253.5,246.5C 252.094,246.027 251.427,245.027 251.5,243.5 Z"/></g>
<g><path style="opacity:0.486" fill="#b6eaff" d="M 338.5,244.5 C 340.587,245.585 341.92,247.251 342.5,249.5C 340.413,248.415 339.08,246.749 338.5,244.5 Z"/></g>
<g><path style="opacity:0.918" fill="#abe7ff" d="M 422.5,244.5 C 421.512,248.485 420.512,252.485 419.5,256.5C 419.167,256.5 418.833,256.5 418.5,256.5C 418.861,252.085 420.194,248.085 422.5,244.5 Z"/></g>
<g><path style="opacity:1" fill="#30c6ff" d="M 422.5,244.5 C 422.833,244.5 423.167,244.5 423.5,244.5C 425.104,245.287 425.771,246.62 425.5,248.5C 423.926,250.102 423.259,252.102 423.5,254.5C 422.778,254.918 422.278,255.584 422,256.5C 420.249,273.677 419.416,273.677 419.5,256.5C 420.512,252.485 421.512,248.485 422.5,244.5 Z"/></g>
<g><path style="opacity:0.294" fill="#c3efff" d="M 279.5,247.5 C 279.573,249.027 278.906,250.027 277.5,250.5C 277.427,248.973 278.094,247.973 279.5,247.5 Z"/></g>
<g><path style="opacity:0.455" fill="#bdecff" d="M 381.5,246.5 C 380.92,248.749 379.587,250.415 377.5,251.5C 378.08,249.251 379.413,247.585 381.5,246.5 Z"/></g>
<g><path style="opacity:0.251" fill="#c7f0ff" d="M 254.5,248.5 C 255.906,248.973 256.573,249.973 256.5,251.5C 255.094,251.027 254.427,250.027 254.5,248.5 Z"/></g>
<g><path style="opacity:0.298" fill="#ccf1ff" d="M 425.5,248.5 C 425.405,250.786 424.738,252.786 423.5,254.5C 423.259,252.102 423.926,250.102 425.5,248.5 Z"/></g>
<g><path style="opacity:0.71" fill="#b5eaff" d="M 377.5,251.5 C 377.262,253.404 376.262,254.738 374.5,255.5C 374.738,253.596 375.738,252.262 377.5,251.5 Z"/></g>
<g><path style="opacity:0.306" fill="#c0edff" d="M 276.5,252.5 C 276.573,254.027 275.906,255.027 274.5,255.5C 274.427,253.973 275.094,252.973 276.5,252.5 Z"/></g>
<g><path style="opacity:0.251" fill="#c6efff" d="M 257.5,253.5 C 258.906,253.973 259.573,254.973 259.5,256.5C 258.094,256.027 257.427,255.027 257.5,253.5 Z"/></g>
<g><path style="opacity:0.451" fill="#b9ebff" d="M 345.5,253.5 C 347.587,254.585 348.92,256.251 349.5,258.5C 347.413,257.415 346.08,255.749 345.5,253.5 Z"/></g>
<g><path style="opacity:0.325" fill="#bfedff" d="M 273.5,257.5 C 273.573,259.027 272.906,260.027 271.5,260.5C 271.427,258.973 272.094,257.973 273.5,257.5 Z"/></g>
<g><path style="opacity:0.137" fill="#d7f3ff" d="M 278.5,257.5 C 278.573,259.027 277.906,260.027 276.5,260.5C 276.427,258.973 277.094,257.973 278.5,257.5 Z"/></g>
<g><path style="opacity:0.286" fill="#c4efff" d="M 260.5,258.5 C 261.906,258.973 262.573,259.973 262.5,261.5C 261.094,261.027 260.427,260.027 260.5,258.5 Z"/></g>
<g><path style="opacity:0.298" fill="#baebff" d="M 371.5,259.5 C 370.92,261.749 369.587,263.415 367.5,264.5C 368.08,262.251 369.413,260.585 371.5,259.5 Z"/></g>
<g><path style="opacity:0.961" fill="#a4e3ff" d="M 271.5,260.5 C 271.408,262.848 270.408,264.514 268.5,265.5C 268.75,263.326 269.75,261.659 271.5,260.5 Z"/></g>
<g><path style="opacity:0.22" fill="#c9f0ff" d="M 263.5,263.5 C 264.906,263.973 265.573,264.973 265.5,266.5C 264.094,266.027 263.427,265.027 263.5,263.5 Z"/></g>
<g><path style="opacity:0.886" fill="#a5e5ff" d="M 355.5,266.5 C 357.587,267.585 358.92,269.251 359.5,271.5C 357.413,270.415 356.08,268.749 355.5,266.5 Z"/></g>
<g><path style="opacity:0.999" fill="#57ccff" d="M 269.5,272.5 C 268.507,281.318 268.173,290.318 268.5,299.5C 271.5,299.5 274.5,299.5 277.5,299.5C 277.5,300.5 277.5,301.5 277.5,302.5C 270.5,303.833 263.5,303.833 256.5,302.5C 256.5,301.5 256.5,300.5 256.5,299.5C 259.167,299.5 261.833,299.5 264.5,299.5C 264.5,290.167 264.5,280.833 264.5,271.5C 267.013,268.874 268.68,269.207 269.5,272.5 Z"/></g>
<g><path style="opacity:0.215" fill="#c9f0ff" d="M 269.5,272.5 C 269.5,281.167 269.5,289.833 269.5,298.5C 272.5,298.5 275.5,298.5 278.5,298.5C 278.768,300.099 278.434,301.432 277.5,302.5C 277.5,301.5 277.5,300.5 277.5,299.5C 274.5,299.5 271.5,299.5 268.5,299.5C 268.173,290.318 268.507,281.318 269.5,272.5 Z"/></g>
<g><path style="opacity:0.549" fill="#c6efff" d="M 423.5,272.5 C 424.537,273.93 425.204,275.597 425.5,277.5C 423.787,276.365 423.12,274.698 423.5,272.5 Z"/></g>
<g><path style="opacity:0.373" fill="#b8ebff" d="M 419.5,274.5 C 420.931,275.78 421.598,277.447 421.5,279.5C 420.069,278.22 419.402,276.553 419.5,274.5 Z"/></g>
<g><path style="opacity:0.431" fill="#b0e9ff" d="M 427.5,282.5 C 428.906,282.973 429.573,283.973 429.5,285.5C 428.094,285.027 427.427,284.027 427.5,282.5 Z"/></g>
<g><path style="opacity:0.875" fill="#a1e4ff" d="M 429.5,285.5 C 431.5,286.833 433.167,288.5 434.5,290.5C 431.833,289.833 430.167,288.167 429.5,285.5 Z"/></g>
<g><path style="opacity:0.553" fill="#afe8ff" d="M 424.5,285.5 C 426.446,286.035 427.446,287.368 427.5,289.5C 426.026,288.564 425.026,287.23 424.5,285.5 Z"/></g>
<g><path style="opacity:1" fill="#6dd2ff" d="M 423.5,254.5 C 422.167,260.5 422.167,266.5 423.5,272.5C 423.12,274.698 423.787,276.365 425.5,277.5C 426.441,279.05 427.107,280.716 427.5,282.5C 427.427,284.027 428.094,285.027 429.5,285.5C 430.167,288.167 431.833,289.833 434.5,290.5C 439.122,293.976 444.122,296.643 449.5,298.5C 456.724,301.03 464.057,300.864 471.5,298C 472.056,297.617 472.389,297.117 472.5,296.5C 472.842,295.662 473.508,295.328 474.5,295.5C 476.973,295.088 478.306,296.088 478.5,298.5C 478.158,299.338 477.492,299.672 476.5,299.5C 474.447,299.402 472.78,300.069 471.5,301.5C 470.391,302.29 469.058,302.79 467.5,303C 461.5,303.667 455.5,303.667 449.5,303C 445.381,302.356 441.715,300.856 438.5,298.5C 438.027,297.094 437.027,296.427 435.5,296.5C 434.738,294.738 433.404,293.738 431.5,293.5C 429.833,292.5 428.5,291.167 427.5,289.5C 427.446,287.368 426.446,286.035 424.5,285.5C 422.992,283.819 421.992,281.819 421.5,279.5C 421.598,277.447 420.931,275.78 419.5,274.5C 418.03,271.114 417.363,267.447 417.5,263.5C 417.503,260.975 417.837,258.641 418.5,256.5C 418.833,256.5 419.167,256.5 419.5,256.5C 419.416,273.677 420.249,273.677 422,256.5C 422.278,255.584 422.778,254.918 423.5,254.5 Z"/></g>
<g><path style="opacity:0.678" fill="#b5eaff" d="M 431.5,293.5 C 433.404,293.738 434.738,294.738 435.5,296.5C 433.596,296.262 432.262,295.262 431.5,293.5 Z"/></g>
<g><path style="opacity:0.224" fill="#d6f4ff" d="M 474.5,295.5 C 475.601,294.402 476.934,294.235 478.5,295C 479.791,296.292 479.791,297.458 478.5,298.5C 478.306,296.088 476.973,295.088 474.5,295.5 Z"/></g>
<g><path style="opacity:0.278" fill="#c6efff" d="M 435.5,296.5 C 437.027,296.427 438.027,297.094 438.5,298.5C 436.973,298.573 435.973,297.906 435.5,296.5 Z"/></g>
<g><path style="opacity:0.601" fill="#a3e5ff" d="M 472.5,296.5 C 472.389,297.117 472.056,297.617 471.5,298C 464.057,300.864 456.724,301.03 449.5,298.5C 457.304,299.701 464.971,299.035 472.5,296.5 Z"/></g>
<g><path style="opacity:0.38" fill="#cdf1ff" d="M 263.5,271.5 C 263.833,271.5 264.167,271.5 264.5,271.5C 264.5,280.833 264.5,290.167 264.5,299.5C 261.833,299.5 259.167,299.5 256.5,299.5C 256.5,300.5 256.5,301.5 256.5,302.5C 255.566,301.432 255.232,300.099 255.5,298.5C 258.167,298.5 260.833,298.5 263.5,298.5C 263.5,289.5 263.5,280.5 263.5,271.5 Z"/></g>
<g><path style="opacity:0.165" fill="#d6f3ff" d="M 476.5,299.5 C 475.22,300.931 473.553,301.598 471.5,301.5C 472.78,300.069 474.447,299.402 476.5,299.5 Z"/></g>
</svg>
